<svg viewBox="0 0 84 14" fill="none" xmlns="http://www.w3.org/2000/svg">
<mask id="mask0_1175_536" style="mask-type:luminance" maskUnits="userSpaceOnUse" x="0" y="0" width="84" height="14">
<path d="M83.0462 0H0V13.814H83.0462V0Z" fill="white"/>
</mask>
<g mask="url(#mask0_1175_536)">
<path fill-rule="evenodd" clip-rule="evenodd" d="M0 3.81065L6.91915 0L8.08459 0.641824L2.56506 3.70406L6.91882 6.10183L12.4384 3.03991L13.838 3.81065L6.91915 7.62132L0 3.81065Z" fill="white"/>
<path fill-rule="evenodd" clip-rule="evenodd" d="M0 9.88859L2.0066 8.80298L3.17204 9.44512L2.56506 9.78198L6.91882 12.1798L12.4384 9.11786L13.838 9.88859L6.91915 13.6993L0 9.88859Z" fill="white"/>
<path fill-rule="evenodd" clip-rule="evenodd" d="M0 6.84959L2.0066 5.76428L3.17204 6.40611L2.56506 6.74298L6.91882 9.14075L12.4384 6.07885L13.838 6.84959L6.91915 10.6603L0 6.84959Z" fill="white"/>
<path fill-rule="evenodd" clip-rule="evenodd" d="M76.731 11.3371C76.731 11.4723 76.8402 11.5946 76.991 11.5946H82.6541C82.8042 11.5946 82.9141 11.473 82.9141 11.3371V9.86064C82.9141 9.72543 82.8049 9.60307 82.6541 9.60307H78.8648V7.77509H81.9833C82.12 7.77509 82.2435 7.66692 82.2435 7.51752V6.04108C82.2435 5.90587 82.1207 5.78351 81.9833 5.78351H78.8648V4.10425H82.6541C82.8042 4.10425 82.9141 3.98258 82.9141 3.8467V2.37024C82.9141 2.23505 82.8049 2.11267 82.6541 2.11267H76.991C76.8408 2.11267 76.731 2.23436 76.731 2.37024V11.335V11.3371Z" fill="white"/>
<path d="M70.3926 11.5906C70.2553 11.5906 70.1324 11.4682 70.1324 11.333V4.10157H68.1767C68.0259 4.10157 67.9165 3.97919 67.9165 3.84399V2.36754C67.9165 2.23166 68.0265 2.10999 68.1767 2.10999H74.2501C74.4009 2.10999 74.5101 2.23234 74.5101 2.36754V3.84399C74.5101 3.97987 74.4003 4.10157 74.2501 4.10157H72.2944V11.333C72.2944 11.4689 72.1707 11.5906 72.0342 11.5906H70.3926Z" fill="white"/>
<path fill-rule="evenodd" clip-rule="evenodd" d="M57.894 11.5906H59.3976C59.6715 11.5906 59.8218 11.4284 59.8901 11.2654L60.3823 10.1818H64.1033L64.5956 11.2519C64.7184 11.5095 64.8278 11.5906 65.0742 11.5906H66.5929C66.7985 11.5906 66.9077 11.4148 66.8258 11.2384L62.5443 2.12418C62.5033 2.04305 62.4078 1.97546 62.3114 1.97546H62.1749C62.0793 1.97546 61.9836 2.04305 61.9426 2.12418L57.6611 11.2384C57.5792 11.4142 57.6884 11.5906 57.894 11.5906ZM61.2025 8.3401L62.228 6.10598H62.2417L63.281 8.3401H61.2025Z" fill="white"/>
<path d="M50.0587 11.5906C49.9077 11.5906 49.7985 11.4682 49.7985 11.333L49.7979 11.3324V2.36754C49.7979 2.23166 49.9077 2.10999 50.0579 2.10999H51.6858C51.8231 2.10999 51.946 2.23234 51.946 2.36754V9.59902H55.2019C55.3529 9.59902 55.4621 9.72138 55.4621 9.85659V11.333C55.4621 11.4689 55.3522 11.5906 55.2019 11.5906H50.0587Z" fill="white"/>
<path d="M41.7345 11.5906C41.5837 11.5906 41.4743 11.4682 41.4743 11.333L41.4736 11.3324V2.36754C41.4736 2.23166 41.5837 2.10999 41.7338 2.10999H43.3618C43.4991 2.10999 43.6219 2.23234 43.6219 2.36754V9.59902H46.8778C47.0288 9.59902 47.138 9.72138 47.138 9.85659V11.333C47.138 11.4689 47.028 11.5906 46.8778 11.5906H41.7345Z" fill="white"/>
<path d="M23.4885 11.7251C20.7531 11.7251 18.5508 9.57201 18.5508 6.86384V6.86316H18.5514C18.5514 4.15432 20.7537 1.97412 23.4892 1.97412C24.8569 1.97412 25.8696 2.39394 26.7997 3.23356C26.9225 3.34173 26.9225 3.50466 26.8133 3.61281L25.7461 4.71002C25.6505 4.80465 25.4995 4.80465 25.404 4.71002C24.8979 4.26316 24.2273 4.01911 23.5574 4.01911C22.0122 4.01911 20.8766 5.30559 20.8766 6.80907C20.8766 8.31256 22.0251 9.55848 23.5711 9.55848C24.2137 9.55848 24.9115 9.32795 25.404 8.90814C25.4995 8.82701 25.6778 8.82701 25.7597 8.92166L26.8263 10.0459C26.9219 10.1405 26.9082 10.317 26.8127 10.4116C25.8826 11.3053 24.7061 11.7251 23.4885 11.7251Z" fill="white"/>
<path fill-rule="evenodd" clip-rule="evenodd" d="M28.9858 6.86389C28.9858 9.57206 31.1608 11.7252 33.8969 11.7252C36.6332 11.7252 38.821 9.57206 38.821 6.86389C38.821 4.15572 36.6326 1.97485 33.8969 1.97485C31.1615 1.97485 28.9858 4.15505 28.9858 6.86389ZM31.1753 6.8639C31.1753 5.37393 32.4063 4.14221 33.8971 4.14221C35.3877 4.14221 36.6326 5.37461 36.6326 6.8639C36.6326 8.35319 35.4014 9.55855 33.8971 9.55855C32.3927 9.55855 31.1753 8.33967 31.1753 6.8639Z" fill="white"/>
</g>
</svg>
