<svg viewBox="0 0 64 25" fill="none" xmlns="http://www.w3.org/2000/svg">
<path d="M62.214 20.1277C62.6205 20.1277 62.95 19.798 62.95 19.3914C62.95 18.9847 62.6205 18.655 62.214 18.655C61.8075 18.655 61.478 18.9847 61.478 19.3914C61.478 19.798 61.8075 20.1277 62.214 20.1277Z" stroke="white" stroke-width="0.177108"/>
<path d="M62.2229 19.0173C62.2806 19.0173 62.3289 19.0273 62.3681 19.0473C62.4069 19.0672 62.4367 19.0952 62.4564 19.1313C62.4767 19.1671 62.487 19.2089 62.487 19.2566C62.487 19.3046 62.4767 19.3462 62.4561 19.3815C62.4361 19.4166 62.4063 19.4439 62.3669 19.4632C62.3622 19.4654 62.3572 19.4669 62.3522 19.4689L62.5144 19.7658H62.3631L62.2159 19.4917H62.0781V19.7658H61.9424V19.0173H62.2229ZM62.0781 19.3792H62.2029C62.2365 19.3792 62.2642 19.3743 62.2856 19.3651C62.3071 19.3556 62.323 19.3419 62.333 19.324C62.3436 19.3057 62.3486 19.2832 62.3486 19.2566C62.3486 19.2302 62.3436 19.2075 62.333 19.1888C62.3227 19.1698 62.3065 19.1554 62.2851 19.1456C62.2639 19.1356 62.2362 19.1304 62.2023 19.1304H62.0781V19.3792Z" fill="white"/>
<path fill-rule="evenodd" clip-rule="evenodd" d="M10.1811 10.1861C15.8038 10.1861 20.3622 7.90575 20.3622 5.09304C20.3622 2.28032 15.8038 0 10.1811 0C4.55842 0 0 2.28032 0 5.09304C0 7.90575 4.55842 10.1861 10.1811 10.1861ZM10.2219 7.70066C13.0332 7.70066 15.3124 6.56063 15.3124 5.15416C15.3124 3.74766 13.0332 2.60763 10.2219 2.60763C7.41051 2.60763 5.13128 3.74766 5.13128 5.15416C5.13128 6.56063 7.41051 7.70066 10.2219 7.70066Z" fill="white"/>
<path d="M0.000287494 5.13367C0.043998 7.92761 4.58554 10.1859 10.181 10.1859C15.7766 10.1859 20.3186 7.92764 20.3623 5.13367L20.362 19.3943C20.3183 22.1882 15.7766 24.4465 10.181 24.4465C4.58554 24.4465 0.043998 22.1882 0.000287494 19.3943V5.13367ZM16.6675 11.0431C16.6196 11.0435 16.5727 11.0566 16.5315 11.0811L10.2808 14.7887C10.2384 14.8138 10.19 14.8269 10.1408 14.8266C10.0915 14.8263 10.0431 14.8126 10.0011 14.7869L3.91508 11.0886C3.87393 11.0635 3.82671 11.05 3.77854 11.0491C3.73035 11.0483 3.68284 11.0603 3.64083 11.0839C3.59885 11.1076 3.56396 11.1419 3.53961 11.1835C3.5153 11.2251 3.50226 11.2725 3.50226 11.3206V19.3183C3.50228 19.3662 3.51503 19.4133 3.53905 19.4547C3.56308 19.496 3.59761 19.5302 3.63909 19.5539L6.51691 21.1991C6.55821 21.2227 6.60508 21.2353 6.65262 21.2351C6.70014 21.2349 6.74692 21.2221 6.78801 21.1983C6.82908 21.1744 6.8632 21.1402 6.88693 21.0991C6.91063 21.0579 6.92311 21.0111 6.92314 20.9636V17.2643C6.92314 17.2164 6.93586 17.1691 6.95994 17.1277C6.98402 17.0863 7.01864 17.0519 7.06027 17.0282C7.10193 17.0044 7.1492 16.9924 7.19713 16.9928C7.24506 16.9932 7.29216 17.0062 7.33341 17.0308L10.0048 18.6211C10.0459 18.6455 10.0929 18.6589 10.1408 18.6594C10.1886 18.6598 10.236 18.6476 10.2776 18.624L13.1152 17.0161C13.1565 16.9927 13.2031 16.9804 13.2506 16.9807C13.2981 16.981 13.3447 16.9939 13.3857 17.0178C13.4267 17.0417 13.4607 17.0759 13.4843 17.117C13.508 17.1582 13.5206 17.205 13.5206 17.2525V20.9826C13.5206 21.0293 13.5327 21.0751 13.5556 21.1157C13.5786 21.1564 13.6114 21.1908 13.6514 21.215C13.6913 21.2392 13.7369 21.2526 13.7836 21.2541C13.8303 21.2555 13.8765 21.2447 13.9179 21.223L16.796 19.7149C16.8398 19.692 16.8764 19.6575 16.9021 19.6152C16.9277 19.5727 16.9414 19.5241 16.9414 19.4745V11.3146C16.9414 11.2667 16.9287 11.2197 16.9046 11.1783C16.8806 11.1369 16.8459 11.1025 16.8043 11.0788C16.7627 11.055 16.7154 11.0427 16.6675 11.0431Z" fill="white"/>
<path d="M26.0647 10.3749C25.5679 10.3749 25.1118 10.2583 24.6964 10.025C24.2865 9.7973 23.9452 9.46374 23.7081 9.05911C23.4649 8.64352 23.3433 8.1745 23.3433 7.65208C23.3433 7.1349 23.4649 6.67095 23.7081 6.26024C23.9436 5.8524 24.2851 5.51598 24.6964 5.28674C25.1118 5.0535 25.5679 4.93689 26.0647 4.93689C26.5665 4.93689 27.0226 5.0535 27.4331 5.28674C27.8432 5.51486 28.1825 5.85172 28.4137 6.26024C28.657 6.67095 28.7786 7.1349 28.7786 7.65208C28.7786 8.1745 28.657 8.64352 28.4137 9.05911C28.181 9.46451 27.8419 9.79851 27.4331 10.025C27.0177 10.2583 26.5616 10.3749 26.0647 10.3749ZM26.0647 9.42419C26.384 9.42419 26.6653 9.3532 26.9085 9.21121C27.1518 9.06417 27.3419 8.85629 27.4787 8.58755C27.6155 8.31882 27.6839 8.00699 27.6839 7.65208C27.6839 7.29713 27.6155 6.98784 27.4787 6.7242C27.3419 6.45546 27.1518 6.25011 26.9085 6.10814C26.6653 5.96618 26.384 5.89519 26.0647 5.89519C25.7455 5.89519 25.4617 5.96618 25.2133 6.10814C24.9701 6.25029 24.78 6.45564 24.6432 6.7242C24.5064 6.98784 24.4379 7.29713 24.4379 7.65208C24.4379 8.00699 24.5064 8.31882 24.6432 8.58755C24.78 8.85647 24.9701 9.06435 25.2133 9.21121C25.4617 9.3532 25.7455 9.42419 26.0647 9.42419ZM30.6346 6.7166C30.7715 6.52391 30.959 6.36419 31.1972 6.23745C31.4404 6.10561 31.7165 6.03969 32.0256 6.03969C32.3857 6.03969 32.7098 6.12841 32.9989 6.3059C33.2927 6.48335 33.5232 6.73686 33.6904 7.06645C33.8629 7.39094 33.9489 7.76868 33.9489 8.19968C33.9489 8.63065 33.8629 9.01348 33.6904 9.34811C33.5232 9.67769 33.2927 9.93373 32.9989 10.1163C32.7098 10.2988 32.3857 10.3901 32.0256 10.3901C31.7168 10.3901 31.443 10.3267 31.2048 10.1999C30.9717 10.0732 30.7818 9.91347 30.6346 9.72078V12.3295H29.5704V6.10814H30.6346V6.7166ZM32.862 8.19968C32.862 7.94614 32.8087 7.72813 32.7024 7.5456C32.6009 7.35816 32.464 7.21619 32.2917 7.11967C32.1254 7.02359 31.9364 6.9737 31.7445 6.97517C31.5519 6.97517 31.3694 7.02589 31.1972 7.1273C31.03 7.22361 30.8931 7.36558 30.7865 7.5532C30.6852 7.74079 30.6346 7.96137 30.6346 8.21488C30.6346 8.46841 30.6852 8.68896 30.7865 8.87658C30.8931 9.06417 31.03 9.20867 31.1972 9.31008C31.3641 9.40463 31.5525 9.45443 31.7445 9.45458C31.942 9.45458 32.1245 9.40389 32.2917 9.30248C32.4663 9.19919 32.6085 9.04901 32.7024 8.86895C32.8087 8.68136 32.862 8.45825 32.862 8.19968ZM38.6374 8.12363C38.6374 8.27573 38.6274 8.41263 38.6071 8.53433H35.5283C35.5536 8.83856 35.6602 9.07684 35.8474 9.24923C36.035 9.42165 36.2658 9.50783 36.5393 9.50783C36.9346 9.50783 37.2158 9.33798 37.3833 8.99826H38.5311C38.4095 9.40389 38.1764 9.73854 37.8316 10.0022C37.4869 10.2608 37.0639 10.3901 36.5622 10.3901C36.1568 10.3901 35.7918 10.3013 35.4674 10.1239C35.1497 9.94325 34.8892 9.67713 34.7149 9.35574C34.5374 9.02615 34.4488 8.64587 34.4488 8.21488C34.4488 7.77885 34.5374 7.39601 34.7149 7.06645C34.8836 6.74564 35.1426 6.48123 35.46 6.3059C35.7791 6.12841 36.1465 6.03969 36.5622 6.03969C36.9626 6.03969 37.32 6.12588 37.6341 6.29827C37.9476 6.46521 38.2046 6.72211 38.3713 7.03602C38.5488 7.35038 38.6374 7.71293 38.6374 8.12363ZM37.5352 7.8194C37.5299 7.54578 37.431 7.32773 37.2387 7.16532C37.0462 6.998 36.8107 6.91432 36.5316 6.91432C36.2681 6.91432 36.0453 6.99547 35.8627 7.1577C35.6855 7.31489 35.5763 7.53544 35.536 7.8194H37.5352ZM41.748 6.04729C42.2499 6.04729 42.6553 6.20702 42.9644 6.52645C43.2735 6.84063 43.4281 7.28175 43.4281 7.84983V10.3216H42.3638V7.99433C42.3638 7.65968 42.2802 7.40363 42.113 7.22615C41.9455 7.04362 41.7176 6.95235 41.4288 6.95235C41.135 6.95235 40.9019 7.04362 40.7294 7.22615C40.5621 7.40363 40.4785 7.65968 40.4785 7.99433V10.3216H39.4143V6.10814H40.4785V6.63292C40.6213 6.44942 40.8065 6.30327 41.0182 6.20702C41.2463 6.09975 41.496 6.04517 41.748 6.04729Z" fill="white"/>
<path d="M29.3842 14.8657V20.1744H28.3199V16.7215L26.8984 20.1744H26.0925L24.6634 16.7215V20.1744H23.5991V14.8657H24.8078L26.4955 18.813L28.1831 14.8657H29.3842ZM34.3514 17.9764C34.3514 18.1285 34.3414 18.2654 34.3211 18.3871H31.2423C31.2676 18.6913 31.3742 18.9296 31.5617 19.102C31.7492 19.2744 31.9797 19.3606 32.2532 19.3606C32.6486 19.3606 32.93 19.1908 33.0973 18.851H34.2451C34.1235 19.2567 33.8904 19.5913 33.5456 19.855C33.2012 20.1136 32.7778 20.2428 32.2762 20.2428C31.8705 20.2428 31.5058 20.1541 31.1814 19.9767C30.8637 19.796 30.6032 19.5299 30.4289 19.2085C30.2517 18.8789 30.1627 18.4986 30.1627 18.0677C30.1627 17.6316 30.2517 17.2488 30.4289 16.9192C30.5979 16.5984 30.8566 16.334 31.174 16.1586C31.4931 15.9812 31.8605 15.8924 32.2762 15.8924C32.6763 15.8924 33.0337 15.9787 33.3481 16.151C33.6619 16.318 33.9186 16.5749 34.0855 16.8888C34.2628 17.2032 34.3514 17.5657 34.3514 17.9764ZM33.2492 17.6722C33.2439 17.3984 33.1453 17.1803 32.9527 17.0181C32.7599 16.8508 32.5244 16.7671 32.2459 16.7671C31.9821 16.7671 31.7592 16.8482 31.5767 17.0105C31.3995 17.1677 31.2906 17.3882 31.2499 17.6722H33.2492ZM36.3674 16.8356V18.8738C36.3674 19.0158 36.4004 19.1198 36.466 19.1857C36.5373 19.2465 36.6535 19.2769 36.8158 19.2769H37.31V20.1744H36.6409C35.7439 20.1744 35.2955 19.7384 35.2955 18.8662V16.8356H34.7939V15.9609H35.2955V14.9189H36.3674V15.9609H37.31V16.8356H36.3674ZM37.8017 18.0524C37.8017 17.6265 37.8853 17.2488 38.0525 16.9192C38.2247 16.5896 38.4555 16.3361 38.7443 16.1586C39.0384 15.9812 39.3652 15.8924 39.725 15.8924C40.0394 15.8924 40.3129 15.9558 40.546 16.0826C40.7842 16.2094 40.9744 16.3691 41.116 16.5618V15.9609H42.1878V20.1744H41.116V19.5583C40.9794 19.7561 40.7892 19.9209 40.546 20.0527C40.3079 20.1795 40.0317 20.2428 39.7173 20.2428C39.3734 20.2458 39.0361 20.1509 38.7443 19.969C38.4555 19.7865 38.2247 19.5305 38.0525 19.2009C37.8853 18.8662 37.8017 18.4834 37.8017 18.0524ZM41.116 18.0677C41.116 17.8091 41.0653 17.5885 40.9641 17.406C40.8628 17.2185 40.7259 17.0766 40.5537 16.9801C40.3859 16.8799 40.1939 16.8273 39.9987 16.828C39.8009 16.828 39.6184 16.8761 39.4512 16.9725C39.2839 17.0688 39.1471 17.2108 39.0408 17.3984C38.9395 17.5809 38.8886 17.7989 38.8886 18.0524C38.8886 18.306 38.9395 18.5291 39.0408 18.7217C39.1471 18.9093 39.2839 19.0539 39.4512 19.1553C39.6237 19.2567 39.8059 19.3074 39.9987 19.3074C40.1966 19.3074 40.3815 19.2592 40.5537 19.1629C40.7265 19.0608 40.8684 18.9136 40.9641 18.7369C41.0653 18.5495 41.116 18.3264 41.116 18.0677ZM42.9539 18.0524C42.9539 17.6265 43.0375 17.2488 43.2047 16.9192C43.3769 16.5896 43.6101 16.3361 43.9042 16.1586C44.198 15.9812 44.525 15.8924 44.8848 15.8924C45.1583 15.8924 45.4194 15.9533 45.6676 16.075C45.916 16.1918 46.1136 16.349 46.2608 16.5465V14.5463H47.34V20.1744H46.2608V19.5507C46.1289 19.7584 45.944 19.9258 45.7059 20.0527C45.4674 20.1795 45.1913 20.2428 44.8771 20.2428C44.5333 20.246 44.1959 20.151 43.9042 19.969C43.6101 19.7865 43.3769 19.5305 43.2047 19.2009C43.0375 18.8662 42.9539 18.4834 42.9539 18.0524ZM46.2681 18.0677C46.2681 17.8091 46.2175 17.5885 46.1162 17.406C46.015 17.2185 45.8781 17.0766 45.7059 16.9801C45.538 16.88 45.3461 16.8274 45.1509 16.828C44.9531 16.828 44.7706 16.8761 44.6034 16.9725C44.4361 17.0688 44.2992 17.2108 44.193 17.3984C44.0917 17.5809 44.0408 17.7989 44.0408 18.0524C44.0408 18.306 44.0917 18.5291 44.193 18.7217C44.2992 18.9093 44.4361 19.0539 44.6034 19.1553C44.7759 19.2567 44.9581 19.3074 45.1509 19.3074C45.3485 19.3074 45.5333 19.2592 45.7059 19.1629C45.8787 19.0608 46.0206 18.9136 46.1162 18.7369C46.2175 18.5495 46.2681 18.3264 46.2681 18.0677ZM48.1058 18.0524C48.1058 17.6265 48.1894 17.2488 48.3566 16.9192C48.5288 16.5896 48.7596 16.3361 49.0484 16.1586C49.3425 15.9812 49.6693 15.8924 50.029 15.8924C50.3434 15.8924 50.6172 15.9558 50.8501 16.0826C51.0885 16.2094 51.2784 16.3691 51.42 16.5618V15.9609H52.4919V20.1744H51.42V19.5583C51.2834 19.7561 51.0933 19.9209 50.8501 20.0527C50.6119 20.1795 50.3358 20.2428 50.0214 20.2428C49.6778 20.2458 49.3401 20.1509 49.0484 19.969C48.7596 19.7865 48.5288 19.5305 48.3566 19.2009C48.1894 18.8662 48.1058 18.4834 48.1058 18.0524ZM51.42 18.0677C51.42 17.8091 51.3694 17.5885 51.2681 17.406C51.1669 17.2185 51.03 17.0766 50.8577 16.9801C50.6899 16.8799 50.498 16.8273 50.3028 16.828C50.105 16.828 49.9228 16.8761 49.7552 16.9725C49.588 17.0688 49.4514 17.2108 49.3449 17.3984C49.2436 17.5809 49.1929 17.7989 49.1929 18.0524C49.1929 18.306 49.2436 18.5291 49.3449 18.7217C49.4514 18.9093 49.588 19.0539 49.7552 19.1553C49.9278 19.2567 50.11 19.3074 50.3028 19.3074C50.5006 19.3074 50.6855 19.2592 50.8577 19.1629C51.0306 19.0608 51.1725 18.9136 51.2681 18.7369C51.3694 18.5495 51.42 18.3264 51.42 18.0677ZM54.7708 16.8356V18.8738C54.7708 19.0158 54.8038 19.1198 54.8694 19.1857C54.9404 19.2465 55.057 19.2769 55.2192 19.2769H55.7135V20.1744H55.0443C54.1473 20.1744 53.6989 19.7384 53.6989 18.8662V16.8356H53.197V15.9609H53.6989V14.9189H54.7708V15.9609H55.7135V16.8356H54.7708ZM56.2051 18.0524C56.2051 17.6265 56.2887 17.2488 56.4559 16.9192C56.6282 16.5896 56.8587 16.3361 57.1478 16.1586C57.4416 15.9812 57.7686 15.8924 58.1284 15.8924C58.4428 15.8924 58.7163 15.9558 58.9495 16.0826C59.1876 16.2094 59.3778 16.3691 59.5194 16.5618V15.9609H60.5913V20.1744H59.5194V19.5583C59.3825 19.7561 59.1926 19.9209 58.9495 20.0527C58.7113 20.1795 58.4351 20.2428 58.1207 20.2428C57.7769 20.2458 57.4395 20.1509 57.1478 19.969C56.8587 19.7865 56.6282 19.5305 56.4559 19.2009C56.2887 18.8662 56.2051 18.4834 56.2051 18.0524ZM59.5194 18.0677C59.5194 17.8091 59.4688 17.5885 59.3675 17.406C59.2659 17.2185 59.1293 17.0766 58.9568 16.9801C58.7893 16.8799 58.5974 16.8273 58.4019 16.828C58.2043 16.828 58.0218 16.8761 57.8546 16.9725C57.6874 17.0688 57.5505 17.2108 57.4442 17.3984C57.3427 17.5809 57.292 17.7989 57.292 18.0524C57.292 18.306 57.3427 18.5291 57.4442 18.7217C57.5505 18.9093 57.6874 19.0539 57.8546 19.1553C58.0268 19.2567 58.2093 19.3074 58.4019 19.3074C58.5997 19.3074 58.7849 19.2592 58.9568 19.1629C59.1299 19.0608 59.2718 18.9136 59.3675 18.7369C59.4688 18.5495 59.5194 18.3264 59.5194 18.0677Z" fill="white"/>
</svg>
